<?xml version="1.0" encoding="utf-8"?>
<!-- Generator: Adobe Illustrator 21.0.0, SVG Export Plug-In . SVG Version: 6.00 Build 0)  -->
<svg version="1.1" id="bedroomsIcon" xmlns="http://www.w3.org/2000/svg" xmlns:xlink="http://www.w3.org/1999/xlink" x="0px"
	 y="0px" viewBox="0 0 64 64" style="enable-background:new 0 0 64 64;" xml:space="preserve">
<style type="text/css">
	.st0{fill:#404040;}
	.st1{fill:#CCCCCC;}
</style>
<g>
	<path class="st0" d="M30.1,26.4c0,2-1.7,3.7-3.7,3.7H11.5c-2,0-3.7-1.7-3.7-3.7V15.3c0-2,1.7-3.7,3.7-3.7h14.9c2,0,3.7,1.7,3.7,3.7
		V26.4z M30.1,48.7c0,2-1.7,3.7-3.7,3.7H11.5c-2,0-3.7-1.7-3.7-3.7V37.6c0-2,1.7-3.7,3.7-3.7h14.9c2,0,3.7,1.7,3.7,3.7V48.7z
		 M56.2,26.4c0,2-1.7,3.7-3.7,3.7H37.6c-2,0-3.7-1.7-3.7-3.7V15.3c0-2,1.7-3.7,3.7-3.7h14.9c2,0,3.7,1.7,3.7,3.7V26.4z M56.2,48.7
		c0,2-1.7,3.7-3.7,3.7H37.6c-2,0-3.7-1.7-3.7-3.7V37.6c0-2,1.7-3.7,3.7-3.7h14.9c2,0,3.7,1.7,3.7,3.7V48.7z"/>
</g>
</svg>
