<?xml version="1.0" encoding="utf-8"?>
<!-- Generator: Adobe Illustrator 21.0.0, SVG Export Plug-In . SVG Version: 6.00 Build 0)  -->
<svg version="1.1" id="bedroomsIcon" xmlns="http://www.w3.org/2000/svg" xmlns:xlink="http://www.w3.org/1999/xlink" x="0px"
	 y="0px" viewBox="0 0 128 64" style="enable-background:new 0 0 128 64;" xml:space="preserve">
<style type="text/css">
	.st0{fill:#404040;}
	.st1{fill:#CCCCCC;}
</style>
<g>
	<path class="st1" d="M32.1,26.4c0,2-1.7,3.7-3.7,3.7H13.5c-2,0-3.7-1.7-3.7-3.7V15.3c0-2,1.7-3.7,3.7-3.7h14.9c2,0,3.7,1.7,3.7,3.7
		V26.4z M32.1,48.7c0,2-1.7,3.7-3.7,3.7H13.5c-2,0-3.7-1.7-3.7-3.7V37.6c0-2,1.7-3.7,3.7-3.7h14.9c2,0,3.7,1.7,3.7,3.7V48.7z
		 M58.2,26.4c0,2-1.7,3.7-3.7,3.7H39.6c-2,0-3.7-1.7-3.7-3.7V15.3c0-2,1.7-3.7,3.7-3.7h14.9c2,0,3.7,1.7,3.7,3.7V26.4z M58.2,48.7
		c0,2-1.7,3.7-3.7,3.7H39.6c-2,0-3.7-1.7-3.7-3.7V37.6c0-2,1.7-3.7,3.7-3.7h14.9c2,0,3.7,1.7,3.7,3.7V48.7z"/>
</g>
<g>
	<path class="st1" d="M82.1,7.8V49c0,0.3-0.2,0.6-0.5,0.8L68.2,57c-0.1,0.1-0.3,0.1-0.4,0.1c-0.5,0-0.9-0.4-0.9-0.9V15
		c0-0.3,0.2-0.6,0.5-0.8L80.8,7C81,7,81.1,6.9,81.3,6.9C81.7,6.9,82.1,7.3,82.1,7.8z M85.2,7l14.3,7.2c0.3,0.2,0.5,0.5,0.5,0.8v41.2
		c0,0.5-0.4,0.9-0.9,0.9c-0.1,0-0.3,0-0.4-0.1l-14.3-7.2c-0.3-0.2-0.5-0.5-0.5-0.8V7.8c0-0.5,0.4-0.9,0.9-0.9C85,6.9,85.1,7,85.2,7z
		 M117.1,7.8V49c0,0.3-0.2,0.6-0.5,0.8L103.2,57c-0.1,0.1-0.3,0.1-0.4,0.1c-0.5,0-0.9-0.4-0.9-0.9V15c0-0.3,0.2-0.6,0.5-0.8L115.8,7
		c0.1-0.1,0.3-0.1,0.4-0.1C116.7,6.9,117.1,7.3,117.1,7.8z"/>
</g>
</svg>
