<?xml version="1.0" encoding="utf-8"?>
<!-- Generator: Adobe Illustrator 21.0.0, SVG Export Plug-In . SVG Version: 6.00 Build 0)  -->
<svg version="1.1" id="bedroomsIcon" xmlns="http://www.w3.org/2000/svg" xmlns:xlink="http://www.w3.org/1999/xlink" x="0px"
	 y="0px" viewBox="0 0 64 64" style="enable-background:new 0 0 64 64;" xml:space="preserve">
<style type="text/css">
	.st0{fill:#404040;}
	.st1{fill:#CCCCCC;}
</style>
<path class="st1" d="M20,23h-6c-1.6,0-3-1.4-3-3v-6c0-1.6,1.4-3,3-3h6c1.6,0,3,1.4,3,3v6C23,21.6,21.6,23,20,23z"/>
<path class="st1" d="M20,38h-6c-1.6,0-3-1.3-3-3v-6c0-1.6,1.4-3,3-3h6c1.6,0,3,1.4,3,3v6C23,36.7,21.6,38,20,38z"/>
<path class="st1" d="M20,53h-6c-1.6,0-3-1.3-3-3v-6c0-1.7,1.4-3,3-3h6c1.6,0,3,1.3,3,3v6C23,51.7,21.6,53,20,53z"/>
<path class="st1" d="M35,23h-6c-1.6,0-3-1.4-3-3v-6c0-1.6,1.4-3,3-3h6c1.7,0,3,1.4,3,3v6C38,21.6,36.7,23,35,23z"/>
<path class="st1" d="M35,38h-6c-1.6,0-3-1.3-3-3v-6c0-1.6,1.4-3,3-3h6c1.7,0,3,1.4,3,3v6C38,36.7,36.7,38,35,38z"/>
<path class="st1" d="M35,53h-6c-1.6,0-3-1.3-3-3v-6c0-1.7,1.4-3,3-3h6c1.7,0,3,1.3,3,3v6C38,51.7,36.7,53,35,53z"/>
<path class="st1" d="M50,23h-6c-1.7,0-3-1.4-3-3v-6c0-1.6,1.3-3,3-3h6c1.7,0,3,1.4,3,3v6C53,21.6,51.7,23,50,23z"/>
<path class="st1" d="M50,38h-6c-1.7,0-3-1.3-3-3v-6c0-1.6,1.3-3,3-3h6c1.7,0,3,1.4,3,3v6C53,36.7,51.7,38,50,38z"/>
<path class="st1" d="M50,53h-6c-1.7,0-3-1.3-3-3v-6c0-1.7,1.3-3,3-3h6c1.7,0,3,1.3,3,3v6C53,51.7,51.7,53,50,53z"/>
</svg>
