<?xml version="1.0" encoding="utf-8"?>
<!-- Generator: Adobe Illustrator 21.0.0, SVG Export Plug-In . SVG Version: 6.00 Build 0)  -->
<svg version="1.1" id="bedroomsIcon" xmlns="http://www.w3.org/2000/svg" xmlns:xlink="http://www.w3.org/1999/xlink" x="0px"
	 y="0px" viewBox="0 0 64 64" style="enable-background:new 0 0 64 64;" xml:space="preserve">
<style type="text/css">
	.st0{fill:#404040;}
	.st1{fill:#CCCCCC;}
</style>
<path class="st1" d="M18,23h-6c-1.6,0-3-1.4-3-3v-6c0-1.6,1.4-3,3-3h6c1.6,0,3,1.4,3,3v6C21,21.6,19.6,23,18,23z"/>
<path class="st1" d="M18,38h-6c-1.6,0-3-1.3-3-3v-6c0-1.6,1.4-3,3-3h6c1.6,0,3,1.4,3,3v6C21,36.7,19.6,38,18,38z"/>
<path class="st1" d="M18,53h-6c-1.6,0-3-1.3-3-3v-6c0-1.7,1.4-3,3-3h6c1.6,0,3,1.3,3,3v6C21,51.7,19.6,53,18,53z"/>
<path class="st1" d="M53,23H27c-1.6,0-3-1.4-3-3v-6c0-1.6,1.4-3,3-3h26c1.7,0,3,1.4,3,3v6C56,21.6,54.7,23,53,23z"/>
<path class="st1" d="M53,38H27c-1.6,0-3-1.3-3-3v-6c0-1.6,1.4-3,3-3h26c1.7,0,3,1.4,3,3v6C56,36.7,54.7,38,53,38z"/>
<path class="st1" d="M53,53H27c-1.6,0-3-1.3-3-3v-6c0-1.7,1.4-3,3-3h26c1.7,0,3,1.3,3,3v6C56,51.7,54.7,53,53,53z"/>
</svg>
