<?xml version="1.0" encoding="utf-8"?>
<!-- Generator: Adobe Illustrator 21.0.0, SVG Export Plug-In . SVG Version: 6.00 Build 0)  -->
<svg version="1.1" id="bedroomsIcon" xmlns="http://www.w3.org/2000/svg" xmlns:xlink="http://www.w3.org/1999/xlink" x="0px"
	 y="0px" viewBox="0 0 64 64" style="enable-background:new 0 0 64 64;" xml:space="preserve">
<style type="text/css">
	.st0{fill:#404040;}
	.st1{fill:#CCCCCC;}
</style>
<g>
	<path class="st1" d="M22.1,7.8V49c0,0.3-0.2,0.6-0.5,0.8L8.2,57C8.1,57,8,57.1,7.8,57.1c-0.5,0-0.9-0.4-0.9-0.9V15
		c0-0.3,0.2-0.6,0.5-0.8L20.8,7C21,7,21.1,6.9,21.3,6.9C21.7,6.9,22.1,7.3,22.1,7.8z M25.2,7l14.3,7.2c0.3,0.2,0.5,0.5,0.5,0.8v41.2
		c0,0.5-0.4,0.9-0.9,0.9c-0.1,0-0.3,0-0.4-0.1l-14.3-7.2c-0.3-0.2-0.5-0.5-0.5-0.8V7.8c0-0.5,0.4-0.9,0.9-0.9C25,6.9,25.1,7,25.2,7z
		 M57.1,7.8V49c0,0.3-0.2,0.6-0.5,0.8L43.2,57c-0.1,0.1-0.3,0.1-0.4,0.1c-0.5,0-0.9-0.4-0.9-0.9V15c0-0.3,0.2-0.6,0.5-0.8L55.8,7
		C55.9,7,56,6.9,56.2,6.9C56.7,6.9,57.1,7.3,57.1,7.8z"/>
</g>
</svg>
